# xmcd
#
# Track frame offsets: 
#        150
#        17693
#        34201
#        49279
#        62451
#        78288
#        96628
#        112623
#        126764
#        137273
#        151108
#        163725
#        176824
#        193912
#        208497
#        226553
#        242483
#        258534
#        274437
#        297694
#
# Disc length: 4254 seconds
#
# Revision: 0
# Processed by: cddbd v1.5.2PL0 Copyright (c) Steve Scherf et al.
# Submitted via: ExactAudioCopy v1.1
#
DISCID=20109c14
DTITLE=Various Artist - WAV - MNM Sing Your Song (2019) - CD 2
DYEAR=2019
DGENRE=Top 40
TTITLE0=Pharrell Williams - Happy
TTITLE1=André Hazes Jr. - Leef
TTITLE2=George Ezra - Shotgun
TTITLE3=Gers Pardoel Feat. Jayh - Zomer
TTITLE4=Alvaro Soler - Sofia
TTITLE5=Marco Borsato - Dromen Zijn Bedrog
TTITLE6=Dimitri Vegas and Like Mike Vs. Ummet Ozcan - The Hum
TTITLE7=Abel - Onderweg
TTITLE8=Lost Frequencies - Are You With Me
TTITLE9=Haddaway - What Is Love
TTITLE10=Michel Telo - Ai Se Eu Te Pego!
TTITLE11=Paul Severs - Zeg 'ns Meisje
TTITLE12=Scooter - How Much Is The Fish
TTITLE13=Spring - Spring
TTITLE14=Gigi D'Agostino - L'Amour Toujours
TTITLE15=Willy Sommers - Laat De Zon In Je Hart
TTITLE16=Las Ketchup - The Ketchup Song
TTITLE17=Nielson - Ijskoud
TTITLE18=Europe - The Final Countdown
TTITLE19=Guus Meeuwis and Vagant - Het Is Een Nacht...
EXTD=
EXTT0=
EXTT1=
EXTT2=
EXTT3=
EXTT4=
EXTT5=
EXTT6=
EXTT7=
EXTT8=
EXTT9=
EXTT10=
EXTT11=
EXTT12=
EXTT13=
EXTT14=
EXTT15=
EXTT16=
EXTT17=
EXTT18=
EXTT19=
PLAYORDER=
